<?xml version="1.0" ?><!DOCTYPE svg  PUBLIC '-//W3C//DTD SVG 1.1//EN'  'http://www.w3.org/Graphics/SVG/1.1/DTD/svg11.dtd'><svg enable-background="new 0 0 115 115" height="115px" id="Layer_1" version="1.1" viewBox="0 0 115 115" width="115px" xml:space="preserve" xmlns="http://www.w3.org/2000/svg" xmlns:xlink="http://www.w3.org/1999/xlink"><g><path d="M53.545,76.419c-1.307,1.309-3.427,1.309-4.734,0L28.35,55.959c-1.307-1.307-1.307-3.427,0-4.734   c1.308-1.307,3.427-1.307,4.735,0l17.417,17.417c0.374,0.374,0.979,0.374,1.353,0l30.062-30.061c1.307-1.307,3.427-1.308,4.733,0   c1.308,1.307,1.308,3.427,0,4.734L53.545,76.419z"/><path d="M57.5,112.5c-30.327,0-55-24.674-55-55s24.673-55,55-55c30.328,0,55,24.672,55,55C112.5,87.826,87.828,112.5,57.5,112.5z    M57.5,9.195C30.864,9.196,9.196,30.864,9.196,57.5c0,26.635,21.669,48.305,48.304,48.305c26.635,0,48.305-21.67,48.305-48.305   C105.805,30.865,84.135,9.196,57.5,9.195z"/></g></svg>