<?xml version="1.0" ?><svg enable-background="new 0 0 32 32" version="1.1" viewBox="0 0 32 32" xml:space="preserve" xmlns="http://www.w3.org/2000/svg" xmlns:xlink="http://www.w3.org/1999/xlink"><g id="outline"><g><path d="M16,2c7.72,0,14,6.28,14,14c0,7.72-6.28,14-14,14C8.28,30,2,23.72,2,16C2,8.28,8.28,2,16,2 M16,0C7.16,0,0,7.16,0,16    c0,8.84,7.16,16,16,16c8.84,0,16-7.16,16-16C32,7.16,24.84,0,16,0L16,0z"/></g><g><g><path d="M15.19,21.45v-4.83c-1.51-0.43-2.61-1.08-3.31-1.95c-0.7-0.87-1.06-1.93-1.06-3.18c0-1.26,0.4-2.32,1.19-3.18     c0.8-0.86,1.85-1.35,3.18-1.48V5.69h1.67v1.14c1.22,0.15,2.19,0.56,2.92,1.25c0.72,0.69,1.18,1.61,1.38,2.76l-2.92,0.38     c-0.18-0.91-0.64-1.52-1.38-1.84v4.51c1.84,0.5,3.1,1.15,3.77,1.94c0.67,0.8,1,1.82,1,3.06c0,1.39-0.42,2.56-1.26,3.52     c-0.84,0.95-2.01,1.54-3.51,1.75v2.16h-1.67v-2.1c-1.33-0.16-2.41-0.66-3.24-1.49c-0.83-0.83-1.36-2-1.59-3.52l3.01-0.32     c0.12,0.62,0.35,1.15,0.69,1.59C14.4,20.92,14.78,21.25,15.19,21.45z M15.19,9.34c-0.45,0.15-0.81,0.41-1.08,0.78     c-0.27,0.37-0.4,0.78-0.4,1.22c0,0.41,0.12,0.79,0.37,1.14s0.62,0.63,1.12,0.85V9.34z M16.86,21.61c0.58-0.11,1.05-0.38,1.41-0.8     c0.36-0.43,0.54-0.93,0.54-1.5c0-0.51-0.15-0.96-0.45-1.33c-0.3-0.37-0.8-0.66-1.49-0.86V21.61z"/></g></g></g></svg>