<?xml version="1.0" ?><!DOCTYPE svg  PUBLIC '-//W3C//DTD SVG 1.1//EN'  'http://www.w3.org/Graphics/SVG/1.1/DTD/svg11.dtd'><svg enable-background="new 0 0 48 48" id="Layer_1" version="1.1" viewBox="0 0 48 48" xml:space="preserve" xmlns="http://www.w3.org/2000/svg" xmlns:xlink="http://www.w3.org/1999/xlink"><g><g><path d="M24,47.5c-8.4,0-15.3-6.9-15.3-15.3c0-8.3,6.6-21.1,15.3-21.1c8.7,0,15.3,12.8,15.3,21.1    C39.3,40.6,32.5,47.5,24,47.5z M24,13c-7.3,0-13.4,11.8-13.4,19.2c0,7.4,6,13.4,13.4,13.4s13.4-6,13.4-13.4    C37.4,24.8,31.3,13,24,13z" fill="#010101"/></g><g><path d="M21.1,13.3c-0.2-0.1-4-2.2-5.9-4.3c-0.6-0.7-0.8-1.6-0.7-2.5c0.2-0.9,0.8-1.6,1.6-2l3.6-1.6    c1.2-0.5,2.5-0.4,3.6,0.3c0.5,0.3,1.1,0.4,1.7,0.2l6.7-2.9l-0.4,1.8C30.6,5.5,28.7,13,25.8,13l0-1.9C26.6,11,28,7.7,29,3.8    l-3.2,1.4c-1.2,0.5-2.5,0.4-3.5-0.3c-0.5-0.3-1.2-0.4-1.7-0.1l-3.6,1.6c-0.3,0.1-0.5,0.4-0.5,0.6c-0.1,0.3,0,0.6,0.2,0.8    c1.7,1.9,5.3,3.9,5.4,3.9L21.1,13.3z" fill="#010101"/></g><g><g><path d="M23.6,37.3v-1.4c-1.8-0.2-3.3-0.9-4.7-2.1l1.4-1.7c1.1,0.9,2.2,1.5,3.3,1.7V30c-1.4-0.3-2.5-0.8-3.2-1.4     c-0.7-0.6-1-1.4-1-2.5c0-1.1,0.4-2,1.2-2.7c0.8-0.7,1.8-1.1,3-1.2v-1h1.2v1c1.4,0.1,2.7,0.6,4,1.4l-1.2,1.8     c-0.8-0.6-1.8-1-2.7-1.1V28h0.1c1.5,0.3,2.6,0.8,3.2,1.4c0.7,0.6,1,1.4,1,2.6c0,1.1-0.4,2-1.2,2.7c-0.8,0.7-1.8,1.1-3.1,1.2v1.4     H23.6z M22.3,24.9c-0.3,0.3-0.5,0.6-0.5,1.1c0,0.4,0.1,0.8,0.4,1c0.3,0.3,0.7,0.5,1.5,0.7v-3.3C23,24.4,22.6,24.6,22.3,24.9z      M26.3,33.3c0.4-0.3,0.5-0.7,0.5-1.1c0-0.4-0.1-0.8-0.4-1.1c-0.3-0.3-0.8-0.5-1.6-0.7v3.5C25.5,33.8,25.9,33.6,26.3,33.3z" fill="#010101"/></g></g></g></svg>