<?xml version="1.0" ?><!DOCTYPE svg  PUBLIC '-//W3C//DTD SVG 1.1//EN'  'http://www.w3.org/Graphics/SVG/1.1/DTD/svg11.dtd'><svg enable-background="new 0 0 48 48" id="Layer_1" version="1.1" viewBox="0 0 48 48" xml:space="preserve" xmlns="http://www.w3.org/2000/svg" xmlns:xlink="http://www.w3.org/1999/xlink"><g><g><path d="M23.9,47.5c-2.2,0-4.4-0.3-6.6-1c-6-1.8-11-5.8-14-11.3c-6.2-11.4-2-25.7,9.3-31.9    c5.5-3,11.8-3.7,17.8-1.9c6,1.8,11,5.8,14,11.3l-1.7,0.9C40,8.6,35.4,5,29.9,3.3c-5.5-1.6-11.3-1-16.3,1.8    C3.3,10.8-0.6,23.9,5.1,34.3c2.7,5.1,7.3,8.7,12.8,10.3c5.5,1.6,11.3,1,16.3-1.8c3.4-1.9,6.3-4.7,8.2-8l1.7,1    c-2.1,3.7-5.2,6.7-9,8.8C31.6,46.5,27.8,47.5,23.9,47.5z" fill="#010101"/></g><g><polygon fill="#010101" points="45,15.8 35.1,13.2 35.6,11.3 43.5,13.4 45.6,5.4 47.5,5.9   "/></g><g><g><path d="M23.5,34.4v-1.8c-2.2-0.2-4.2-1.1-6-2.7l1.8-2.1c1.4,1.2,2.8,1.9,4.2,2.1v-4.7c-1.8-0.4-3.2-1-4-1.7     c-0.9-0.7-1.3-1.8-1.3-3.2c0-1.4,0.5-2.6,1.5-3.5c1-0.9,2.3-1.4,3.8-1.5v-1.2H25v1.2c1.8,0.1,3.5,0.7,5.1,1.8l-1.6,2.2     c-1.1-0.8-2.2-1.2-3.5-1.4v4.6h0.1c1.9,0.4,3.2,1,4.1,1.8c0.9,0.7,1.3,1.8,1.3,3.3c0,1.4-0.5,2.6-1.5,3.5c-1,0.9-2.3,1.4-4,1.5     v1.8H23.5z M21.7,18.7c-0.4,0.4-0.6,0.8-0.6,1.4c0,0.5,0.2,1,0.5,1.3c0.3,0.3,0.9,0.6,1.9,0.9V18C22.7,18.1,22.2,18.3,21.7,18.7z      M26.9,29.4c0.5-0.4,0.7-0.8,0.7-1.4c0-0.6-0.2-1-0.5-1.4c-0.4-0.3-1-0.6-2-0.9v4.4C25.8,30,26.4,29.8,26.9,29.4z" fill="#010101"/></g></g></g></svg>