<?xml version="1.0" ?><!DOCTYPE svg  PUBLIC '-//W3C//DTD SVG 1.1//EN'  'http://www.w3.org/Graphics/SVG/1.1/DTD/svg11.dtd'><svg enable-background="new 0 0 128 128" height="128px" id="Layer_1" version="1.1" viewBox="0 0 128 128" width="128px" xml:space="preserve" xmlns="http://www.w3.org/2000/svg" xmlns:xlink="http://www.w3.org/1999/xlink"><g><path d="M116,16H92v-1.994c0-3.697-1.372-7.184-3.863-9.82c-2.549-2.697-5.952-4.182-9.581-4.182c-0.003,0-0.007,0-0.01,0L49.451,0   C42.035,0,36,6.283,36,14.006V16H12c-2.209,0-4,1.791-4,4s1.791,4,4,4h8v89.999C20,121.719,26.115,128,33.631,128h60.738   c7.516,0,13.631-6.281,13.631-14.001V24h8c2.209,0,4-1.791,4-4S118.209,16,116,16z M44,14.006C44,10.694,46.446,8,49.451,8   l29.097,0.004c0.001,0,0.003,0,0.004,0c1.409,0,2.749,0.595,3.771,1.677C83.404,10.825,84,12.361,84,14.006V16H44V14.006z    M100,113.999c0,3.309-2.526,6.001-5.631,6.001H33.631c-3.105,0-5.631-2.692-5.631-6.001V24h72V113.999z"/><path d="M44,108c2.209,0,4-1.791,4-4V40c0-2.209-1.791-4-4-4s-4,1.791-4,4v64C40,106.209,41.792,108,44,108z"/><path d="M84,108c2.209,0,4-1.791,4-4V40c0-2.209-1.791-4-4-4s-4,1.791-4,4v64C80,106.209,81.791,108,84,108z"/><path d="M64,108c2.209,0,4-1.791,4-4V40c0-2.209-1.79-4-4-4c-2.209,0-4,1.791-4,4v64C60,106.209,61.792,108,64,108z"/></g></svg>